<mxfile host="app.diagrams.net" agent="Mozilla/5.0 (Windows NT 10.0; Win64; x64) AppleWebKit/537.36 (KHTML, like Gecko) Chrome/131.0.0.0 Safari/537.36" version="25.0.3" pages="2">
  <diagram name="Page-1" id="lPDqmn4E8zrp6IXd1ouG">
    <mxGraphModel dx="1909" dy="2113" grid="1" gridSize="10" guides="1" tooltips="1" connect="1" arrows="1" fold="1" page="1" pageScale="1" pageWidth="850" pageHeight="1100" math="0" shadow="0">
      <root>
        <mxCell id="0" />
        <mxCell id="1" parent="0" />
        <mxCell id="pLklD0VYTTt3TwNyVCAp-13" style="edgeStyle=orthogonalEdgeStyle;rounded=0;orthogonalLoop=1;jettySize=auto;html=1;entryX=0;entryY=0.5;entryDx=0;entryDy=0;" parent="1" source="9U5tsQHyDkLq-hxC4wLl-1" target="pLklD0VYTTt3TwNyVCAp-10" edge="1">
          <mxGeometry relative="1" as="geometry" />
        </mxCell>
        <mxCell id="pLklD0VYTTt3TwNyVCAp-58" style="edgeStyle=orthogonalEdgeStyle;rounded=0;orthogonalLoop=1;jettySize=auto;html=1;entryX=0.5;entryY=0;entryDx=0;entryDy=0;" parent="1" source="9U5tsQHyDkLq-hxC4wLl-1" target="pLklD0VYTTt3TwNyVCAp-56" edge="1">
          <mxGeometry relative="1" as="geometry">
            <Array as="points">
              <mxPoint x="180" y="70" />
            </Array>
          </mxGeometry>
        </mxCell>
        <mxCell id="9U5tsQHyDkLq-hxC4wLl-1" value="&lt;font style=&quot;font-size: 17px;&quot;&gt;client&lt;/font&gt;&amp;nbsp;" style="rounded=0;whiteSpace=wrap;html=1;fillColor=#e1d5e7;strokeColor=#9673a6;" parent="1" vertex="1">
          <mxGeometry x="310" y="50" width="120" height="60" as="geometry" />
        </mxCell>
        <mxCell id="9U5tsQHyDkLq-hxC4wLl-4" style="edgeStyle=orthogonalEdgeStyle;rounded=0;orthogonalLoop=1;jettySize=auto;html=1;entryX=0.624;entryY=0.071;entryDx=0;entryDy=0;entryPerimeter=0;" parent="1" source="9U5tsQHyDkLq-hxC4wLl-1" edge="1">
          <mxGeometry relative="1" as="geometry">
            <mxPoint x="372.4000000000001" y="264.97" as="targetPoint" />
            <Array as="points">
              <mxPoint x="372" y="150" />
              <mxPoint x="372" y="150" />
            </Array>
          </mxGeometry>
        </mxCell>
        <mxCell id="9U5tsQHyDkLq-hxC4wLl-8" value="&lt;span style=&quot;font-size: 15px;&quot;&gt;&amp;nbsp;client info&lt;/span&gt;" style="text;html=1;align=center;verticalAlign=middle;whiteSpace=wrap;rounded=0;" parent="1" vertex="1">
          <mxGeometry x="460" y="290" width="70" height="30" as="geometry" />
        </mxCell>
        <mxCell id="9U5tsQHyDkLq-hxC4wLl-9" value="1" style="swimlane;fontStyle=0;childLayout=stackLayout;horizontal=1;startSize=20;fillColor=#ffffff;horizontalStack=0;resizeParent=1;resizeParentMax=0;resizeLast=0;collapsible=0;marginBottom=0;swimlaneFillColor=#ffffff;" parent="1" vertex="1">
          <mxGeometry x="320" y="270" width="100" height="90" as="geometry" />
        </mxCell>
        <mxCell id="9U5tsQHyDkLq-hxC4wLl-10" value="&lt;span style=&quot;font-size: 17px;&quot;&gt;registiration and login&amp;nbsp;&lt;/span&gt;" style="text;html=1;align=center;verticalAlign=middle;whiteSpace=wrap;rounded=0;fillColor=#f5f5f5;fontColor=#333333;strokeColor=#666666;" parent="9U5tsQHyDkLq-hxC4wLl-9" vertex="1">
          <mxGeometry y="20" width="100" height="70" as="geometry" />
        </mxCell>
        <mxCell id="9U5tsQHyDkLq-hxC4wLl-11" value="2" style="swimlane;fontStyle=0;childLayout=stackLayout;horizontal=1;startSize=20;fillColor=#ffffff;horizontalStack=0;resizeParent=1;resizeParentMax=0;resizeLast=0;collapsible=0;marginBottom=0;swimlaneFillColor=#ffffff;" parent="1" vertex="1">
          <mxGeometry x="520" y="420" width="100" height="80" as="geometry" />
        </mxCell>
        <mxCell id="lFRzjSEHLks9n0ZL0WhE-5" value="&lt;span style=&quot;font-size: 15px;&quot;&gt;Deliver client info&lt;/span&gt;" style="text;html=1;align=center;verticalAlign=middle;whiteSpace=wrap;rounded=0;fillColor=#f5f5f5;fontColor=#333333;strokeColor=#666666;" parent="9U5tsQHyDkLq-hxC4wLl-11" vertex="1">
          <mxGeometry y="20" width="100" height="60" as="geometry" />
        </mxCell>
        <mxCell id="pLklD0VYTTt3TwNyVCAp-2" value="&lt;font style=&quot;font-size: 14px;&quot;&gt;client data transfer&lt;/font&gt;" style="text;html=1;align=center;verticalAlign=middle;whiteSpace=wrap;rounded=0;" parent="1" vertex="1">
          <mxGeometry x="590" y="310" width="95" height="30" as="geometry" />
        </mxCell>
        <mxCell id="pLklD0VYTTt3TwNyVCAp-3" value="&lt;font style=&quot;font-size: 14px;&quot;&gt;D1&lt;/font&gt;" style="html=1;dashed=0;whiteSpace=wrap;shape=mxgraph.dfd.dataStoreID;align=left;spacingLeft=3;points=[[0,0],[0.5,0],[1,0],[0,0.5],[1,0.5],[0,1],[0.5,1],[1,1]];" parent="1" vertex="1">
          <mxGeometry x="520" y="180" width="100" height="30" as="geometry" />
        </mxCell>
        <mxCell id="pLklD0VYTTt3TwNyVCAp-4" value="&lt;font style=&quot;font-size: 14px;&quot;&gt;&lt;br&gt;&lt;span style=&quot;color: rgb(0, 0, 0); font-family: Helvetica; font-style: normal; font-variant-ligatures: normal; font-variant-caps: normal; font-weight: 400; letter-spacing: normal; orphans: 2; text-align: center; text-indent: 0px; text-transform: none; widows: 2; word-spacing: 0px; -webkit-text-stroke-width: 0px; white-space: normal; background-color: rgb(251, 251, 251); text-decoration-thickness: initial; text-decoration-style: initial; text-decoration-color: initial; float: none; display: inline !important;&quot;&gt;client dataset&lt;/span&gt;&lt;br&gt;&lt;/font&gt;" style="text;html=1;align=center;verticalAlign=middle;whiteSpace=wrap;rounded=0;" parent="1" vertex="1">
          <mxGeometry x="540" y="170" width="105" height="30" as="geometry" />
        </mxCell>
        <mxCell id="pLklD0VYTTt3TwNyVCAp-5" style="edgeStyle=orthogonalEdgeStyle;rounded=0;orthogonalLoop=1;jettySize=auto;html=1;entryX=0.244;entryY=1.127;entryDx=0;entryDy=0;entryPerimeter=0;" parent="1" source="9U5tsQHyDkLq-hxC4wLl-10" target="pLklD0VYTTt3TwNyVCAp-3" edge="1">
          <mxGeometry relative="1" as="geometry" />
        </mxCell>
        <mxCell id="pLklD0VYTTt3TwNyVCAp-6" style="edgeStyle=orthogonalEdgeStyle;rounded=0;orthogonalLoop=1;jettySize=auto;html=1;entryX=0.684;entryY=0.013;entryDx=0;entryDy=0;entryPerimeter=0;" parent="1" target="9U5tsQHyDkLq-hxC4wLl-11" edge="1">
          <mxGeometry relative="1" as="geometry">
            <mxPoint x="588" y="210" as="sourcePoint" />
            <Array as="points">
              <mxPoint x="588" y="260" />
              <mxPoint x="588" y="260" />
            </Array>
          </mxGeometry>
        </mxCell>
        <mxCell id="pLklD0VYTTt3TwNyVCAp-38" style="edgeStyle=orthogonalEdgeStyle;rounded=0;orthogonalLoop=1;jettySize=auto;html=1;entryX=0.25;entryY=0;entryDx=0;entryDy=0;" parent="1" source="pLklD0VYTTt3TwNyVCAp-7" target="pLklD0VYTTt3TwNyVCAp-35" edge="1">
          <mxGeometry relative="1" as="geometry">
            <Array as="points">
              <mxPoint x="325" y="530" />
              <mxPoint x="325" y="530" />
            </Array>
          </mxGeometry>
        </mxCell>
        <mxCell id="pLklD0VYTTt3TwNyVCAp-7" value="Owner" style="html=1;dashed=0;whiteSpace=wrap;fillColor=#e1d5e7;strokeColor=#9673a6;" parent="1" vertex="1">
          <mxGeometry x="310" y="440" width="100" height="50" as="geometry" />
        </mxCell>
        <mxCell id="pLklD0VYTTt3TwNyVCAp-8" style="edgeStyle=orthogonalEdgeStyle;rounded=0;orthogonalLoop=1;jettySize=auto;html=1;entryX=1;entryY=0.5;entryDx=0;entryDy=0;" parent="1" target="pLklD0VYTTt3TwNyVCAp-7" edge="1">
          <mxGeometry relative="1" as="geometry">
            <Array as="points">
              <mxPoint x="500" y="465" />
              <mxPoint x="500" y="465" />
            </Array>
            <mxPoint x="570" y="470" as="sourcePoint" />
          </mxGeometry>
        </mxCell>
        <mxCell id="pLklD0VYTTt3TwNyVCAp-9" value="processed client data&amp;nbsp;" style="text;html=1;align=center;verticalAlign=middle;whiteSpace=wrap;rounded=0;" parent="1" vertex="1">
          <mxGeometry x="420" y="430" width="90" height="30" as="geometry" />
        </mxCell>
        <mxCell id="pLklD0VYTTt3TwNyVCAp-10" value="5" style="swimlane;fontStyle=0;childLayout=stackLayout;horizontal=1;startSize=20;horizontalStack=0;resizeParent=1;resizeParentMax=0;resizeLast=0;collapsible=0;marginBottom=0;swimlaneFillColor=#ffffff;" parent="1" vertex="1">
          <mxGeometry x="660" y="40" width="100" height="80" as="geometry" />
        </mxCell>
        <mxCell id="pLklD0VYTTt3TwNyVCAp-11" value="&lt;span style=&quot;font-size: 17px;&quot;&gt;choose services&lt;/span&gt;" style="text;html=1;align=center;verticalAlign=middle;whiteSpace=wrap;rounded=0;fillColor=#f5f5f5;fontColor=#333333;strokeColor=#666666;" parent="pLklD0VYTTt3TwNyVCAp-10" vertex="1">
          <mxGeometry y="20" width="100" height="60" as="geometry" />
        </mxCell>
        <mxCell id="pLklD0VYTTt3TwNyVCAp-14" value="&lt;font style=&quot;font-size: 15px;&quot;&gt;client preference&lt;/font&gt;&amp;nbsp;" style="text;html=1;align=center;verticalAlign=middle;whiteSpace=wrap;rounded=0;" parent="1" vertex="1">
          <mxGeometry x="495" y="40" width="60" height="30" as="geometry" />
        </mxCell>
        <mxCell id="pLklD0VYTTt3TwNyVCAp-17" style="edgeStyle=orthogonalEdgeStyle;rounded=0;orthogonalLoop=1;jettySize=auto;html=1;" parent="1" source="pLklD0VYTTt3TwNyVCAp-11" edge="1">
          <mxGeometry relative="1" as="geometry">
            <mxPoint x="900" y="90" as="targetPoint" />
          </mxGeometry>
        </mxCell>
        <mxCell id="pLklD0VYTTt3TwNyVCAp-19" value="&lt;font style=&quot;font-size: 15px;&quot;&gt;request&lt;/font&gt;&lt;div&gt;&lt;br&gt;&lt;/div&gt;" style="text;html=1;align=center;verticalAlign=middle;whiteSpace=wrap;rounded=0;" parent="1" vertex="1">
          <mxGeometry x="780" y="60" width="60" height="30" as="geometry" />
        </mxCell>
        <mxCell id="pLklD0VYTTt3TwNyVCAp-21" value="6" style="swimlane;fontStyle=0;childLayout=stackLayout;horizontal=1;startSize=20;horizontalStack=0;resizeParent=1;resizeParentMax=0;resizeLast=0;collapsible=0;marginBottom=0;swimlaneFillColor=#ffffff;" parent="1" vertex="1">
          <mxGeometry x="910" y="50" width="100" height="80" as="geometry" />
        </mxCell>
        <mxCell id="pLklD0VYTTt3TwNyVCAp-22" value="&lt;font style=&quot;font-size: 17px;&quot;&gt;Client confirm order&amp;nbsp;&lt;/font&gt;" style="text;html=1;align=center;verticalAlign=middle;whiteSpace=wrap;rounded=0;fillColor=#f5f5f5;fontColor=#333333;strokeColor=#666666;" parent="pLklD0VYTTt3TwNyVCAp-21" vertex="1">
          <mxGeometry y="20" width="100" height="60" as="geometry" />
        </mxCell>
        <mxCell id="pLklD0VYTTt3TwNyVCAp-23" value="&lt;font style=&quot;font-size: 14px;&quot;&gt;D3&amp;nbsp;&lt;/font&gt;" style="html=1;dashed=0;whiteSpace=wrap;shape=mxgraph.dfd.dataStoreID;align=left;spacingLeft=3;points=[[0,0],[0.5,0],[1,0],[0,0.5],[1,0.5],[0,1],[0.5,1],[1,1]];" parent="1" vertex="1">
          <mxGeometry x="910" y="220" width="100" height="30" as="geometry" />
        </mxCell>
        <mxCell id="pLklD0VYTTt3TwNyVCAp-24" value="&lt;font style=&quot;font-size: 14px;&quot;&gt;order info&amp;nbsp;&lt;/font&gt;" style="text;html=1;align=center;verticalAlign=middle;whiteSpace=wrap;rounded=0;" parent="1" vertex="1">
          <mxGeometry x="940" y="220" width="80" height="30" as="geometry" />
        </mxCell>
        <mxCell id="pLklD0VYTTt3TwNyVCAp-26" value="&lt;font style=&quot;font-size: 15px;&quot;&gt;client order&amp;nbsp;&lt;/font&gt;" style="text;html=1;align=center;verticalAlign=middle;whiteSpace=wrap;rounded=0;" parent="1" vertex="1">
          <mxGeometry x="970" y="140" width="100" height="30" as="geometry" />
        </mxCell>
        <mxCell id="pLklD0VYTTt3TwNyVCAp-27" style="edgeStyle=orthogonalEdgeStyle;rounded=0;orthogonalLoop=1;jettySize=auto;html=1;entryX=0.358;entryY=0.029;entryDx=0;entryDy=0;entryPerimeter=0;" parent="1" source="pLklD0VYTTt3TwNyVCAp-22" target="pLklD0VYTTt3TwNyVCAp-24" edge="1">
          <mxGeometry relative="1" as="geometry">
            <Array as="points">
              <mxPoint x="969" y="150" />
              <mxPoint x="969" y="150" />
            </Array>
          </mxGeometry>
        </mxCell>
        <mxCell id="pLklD0VYTTt3TwNyVCAp-28" value="&lt;span style=&quot;color: rgb(51, 51, 51);&quot;&gt;&lt;font style=&quot;font-size: 15px;&quot;&gt;service details&amp;nbsp;&lt;/font&gt;&lt;/span&gt;" style="text;html=1;align=center;verticalAlign=middle;whiteSpace=wrap;rounded=0;" parent="1" vertex="1">
          <mxGeometry x="980" y="270" width="60" height="30" as="geometry" />
        </mxCell>
        <mxCell id="pLklD0VYTTt3TwNyVCAp-29" value="7" style="swimlane;fontStyle=0;childLayout=stackLayout;horizontal=1;startSize=20;fillColor=#ffffff;horizontalStack=0;resizeParent=1;resizeParentMax=0;resizeLast=0;collapsible=0;marginBottom=0;swimlaneFillColor=#ffffff;" parent="1" vertex="1">
          <mxGeometry x="920" y="320" width="100" height="70" as="geometry" />
        </mxCell>
        <mxCell id="pLklD0VYTTt3TwNyVCAp-30" value="Forward service details&amp;nbsp;" style="text;html=1;align=center;verticalAlign=middle;whiteSpace=wrap;rounded=0;fillColor=#f5f5f5;fontColor=#333333;strokeColor=#666666;" parent="pLklD0VYTTt3TwNyVCAp-29" vertex="1">
          <mxGeometry y="20" width="100" height="50" as="geometry" />
        </mxCell>
        <mxCell id="pLklD0VYTTt3TwNyVCAp-31" style="edgeStyle=orthogonalEdgeStyle;rounded=0;orthogonalLoop=1;jettySize=auto;html=1;entryX=0.603;entryY=0.014;entryDx=0;entryDy=0;entryPerimeter=0;" parent="1" source="pLklD0VYTTt3TwNyVCAp-24" target="pLklD0VYTTt3TwNyVCAp-29" edge="1">
          <mxGeometry relative="1" as="geometry" />
        </mxCell>
        <mxCell id="pLklD0VYTTt3TwNyVCAp-33" style="edgeStyle=orthogonalEdgeStyle;rounded=0;orthogonalLoop=1;jettySize=auto;html=1;entryX=0.5;entryY=1;entryDx=0;entryDy=0;" parent="1" source="pLklD0VYTTt3TwNyVCAp-30" target="pLklD0VYTTt3TwNyVCAp-7" edge="1">
          <mxGeometry relative="1" as="geometry">
            <Array as="points">
              <mxPoint x="970" y="510" />
              <mxPoint x="360" y="510" />
            </Array>
          </mxGeometry>
        </mxCell>
        <mxCell id="pLklD0VYTTt3TwNyVCAp-35" value="8" style="swimlane;fontStyle=0;childLayout=stackLayout;horizontal=1;startSize=20;fillColor=#ffffff;horizontalStack=0;resizeParent=1;resizeParentMax=0;resizeLast=0;collapsible=0;marginBottom=0;swimlaneFillColor=#ffffff;" parent="1" vertex="1">
          <mxGeometry x="300" y="650" width="100" height="100" as="geometry" />
        </mxCell>
        <mxCell id="pLklD0VYTTt3TwNyVCAp-36" value="&lt;span style=&quot;font-size: 17px;&quot;&gt;Assign Task&lt;/span&gt;" style="text;html=1;align=center;verticalAlign=middle;whiteSpace=wrap;rounded=0;fillColor=#f5f5f5;fontColor=#333333;strokeColor=#666666;" parent="pLklD0VYTTt3TwNyVCAp-35" vertex="1">
          <mxGeometry y="20" width="100" height="80" as="geometry" />
        </mxCell>
        <mxCell id="pLklD0VYTTt3TwNyVCAp-39" value="&lt;font style=&quot;font-size: 15px;&quot;&gt;owners orders&amp;nbsp;&amp;nbsp;&lt;/font&gt;" style="text;html=1;align=center;verticalAlign=middle;whiteSpace=wrap;rounded=0;" parent="1" vertex="1">
          <mxGeometry x="330" y="580" width="90" height="30" as="geometry" />
        </mxCell>
        <mxCell id="eq0-81VJL7edzaEcx1R9-8" style="edgeStyle=orthogonalEdgeStyle;rounded=0;orthogonalLoop=1;jettySize=auto;html=1;entryX=0;entryY=0.25;entryDx=0;entryDy=0;" parent="1" source="pLklD0VYTTt3TwNyVCAp-40" target="9U5tsQHyDkLq-hxC4wLl-10" edge="1">
          <mxGeometry relative="1" as="geometry">
            <Array as="points">
              <mxPoint x="900" y="790" />
              <mxPoint x="290" y="790" />
              <mxPoint x="290" y="308" />
            </Array>
          </mxGeometry>
        </mxCell>
        <mxCell id="pLklD0VYTTt3TwNyVCAp-40" value="&lt;font style=&quot;font-size: 17px;&quot;&gt;staff&lt;/font&gt;" style="html=1;dashed=0;whiteSpace=wrap;fillColor=#e1d5e7;strokeColor=#9673a6;" parent="1" vertex="1">
          <mxGeometry x="850" y="670" width="100" height="50" as="geometry" />
        </mxCell>
        <mxCell id="pLklD0VYTTt3TwNyVCAp-43" style="edgeStyle=orthogonalEdgeStyle;rounded=0;orthogonalLoop=1;jettySize=auto;html=1;entryX=0;entryY=0.75;entryDx=0;entryDy=0;" parent="1" source="pLklD0VYTTt3TwNyVCAp-36" target="pLklD0VYTTt3TwNyVCAp-40" edge="1">
          <mxGeometry relative="1" as="geometry">
            <Array as="points">
              <mxPoint x="510" y="707" />
              <mxPoint x="510" y="707" />
            </Array>
          </mxGeometry>
        </mxCell>
        <mxCell id="pLklD0VYTTt3TwNyVCAp-44" value="&lt;font style=&quot;font-size: 15px;&quot;&gt;preparation design&amp;nbsp;&lt;/font&gt;" style="text;html=1;align=center;verticalAlign=middle;whiteSpace=wrap;rounded=0;" parent="1" vertex="1">
          <mxGeometry x="490" y="680" width="140" height="30" as="geometry" />
        </mxCell>
        <mxCell id="pLklD0VYTTt3TwNyVCAp-50" style="edgeStyle=orthogonalEdgeStyle;rounded=0;orthogonalLoop=1;jettySize=auto;html=1;entryX=1;entryY=0.25;entryDx=0;entryDy=0;" parent="1" source="pLklD0VYTTt3TwNyVCAp-45" target="pLklD0VYTTt3TwNyVCAp-49" edge="1">
          <mxGeometry relative="1" as="geometry">
            <Array as="points">
              <mxPoint x="400" y="892" />
              <mxPoint x="400" y="892" />
            </Array>
          </mxGeometry>
        </mxCell>
        <mxCell id="pLklD0VYTTt3TwNyVCAp-45" value="&lt;span style=&quot;font-size: 17px;&quot;&gt;Billing Department&lt;/span&gt;" style="html=1;dashed=0;whiteSpace=wrap;fillColor=#e1d5e7;strokeColor=#9673a6;" parent="1" vertex="1">
          <mxGeometry x="450" y="870" width="150" height="50" as="geometry" />
        </mxCell>
        <mxCell id="pLklD0VYTTt3TwNyVCAp-46" style="edgeStyle=orthogonalEdgeStyle;rounded=0;orthogonalLoop=1;jettySize=auto;html=1;entryX=1;entryY=0.5;entryDx=0;entryDy=0;" parent="1" source="pLklD0VYTTt3TwNyVCAp-30" target="pLklD0VYTTt3TwNyVCAp-45" edge="1">
          <mxGeometry relative="1" as="geometry">
            <Array as="points">
              <mxPoint x="1090" y="365" />
              <mxPoint x="1090" y="895" />
            </Array>
          </mxGeometry>
        </mxCell>
        <mxCell id="pLklD0VYTTt3TwNyVCAp-47" value="&lt;font style=&quot;font-size: 15px;&quot;&gt;payment calculations&lt;/font&gt;" style="text;html=1;align=center;verticalAlign=middle;whiteSpace=wrap;rounded=0;" parent="1" vertex="1">
          <mxGeometry x="720" y="860" width="160" height="30" as="geometry" />
        </mxCell>
        <mxCell id="pLklD0VYTTt3TwNyVCAp-48" value="9" style="swimlane;fontStyle=0;childLayout=stackLayout;horizontal=1;startSize=20;fillColor=#ffffff;horizontalStack=0;resizeParent=1;resizeParentMax=0;resizeLast=0;collapsible=0;marginBottom=0;swimlaneFillColor=#ffffff;" parent="1" vertex="1">
          <mxGeometry x="130" y="850" width="100" height="110" as="geometry" />
        </mxCell>
        <mxCell id="pLklD0VYTTt3TwNyVCAp-49" value="&lt;span style=&quot;font-size: 17px;&quot;&gt;pay&lt;/span&gt;" style="text;html=1;align=center;verticalAlign=middle;whiteSpace=wrap;rounded=0;fillColor=#f5f5f5;fontColor=#333333;strokeColor=#666666;" parent="pLklD0VYTTt3TwNyVCAp-48" vertex="1">
          <mxGeometry y="20" width="100" height="90" as="geometry" />
        </mxCell>
        <mxCell id="pLklD0VYTTt3TwNyVCAp-53" value="&lt;font style=&quot;font-size: 15px;&quot;&gt;service cost&amp;nbsp;&lt;/font&gt;" style="text;html=1;align=center;verticalAlign=middle;whiteSpace=wrap;rounded=0;" parent="1" vertex="1">
          <mxGeometry x="315" y="860" width="110" height="30" as="geometry" />
        </mxCell>
        <mxCell id="pLklD0VYTTt3TwNyVCAp-55" value="&lt;font style=&quot;font-size: 15px;&quot;&gt;receipt&lt;/font&gt;" style="text;html=1;align=center;verticalAlign=middle;whiteSpace=wrap;rounded=0;" parent="1" vertex="1">
          <mxGeometry x="290" y="160" width="60" height="30" as="geometry" />
        </mxCell>
        <mxCell id="pLklD0VYTTt3TwNyVCAp-63" style="edgeStyle=orthogonalEdgeStyle;rounded=0;orthogonalLoop=1;jettySize=auto;html=1;entryX=0;entryY=1;entryDx=0;entryDy=0;exitX=1;exitY=0.5;exitDx=0;exitDy=0;" parent="1" source="pLklD0VYTTt3TwNyVCAp-61" target="9U5tsQHyDkLq-hxC4wLl-1" edge="1">
          <mxGeometry relative="1" as="geometry">
            <mxPoint x="250" y="560" as="sourcePoint" />
            <Array as="points">
              <mxPoint x="240" y="645" />
              <mxPoint x="240" y="130" />
              <mxPoint x="310" y="130" />
            </Array>
          </mxGeometry>
        </mxCell>
        <mxCell id="pLklD0VYTTt3TwNyVCAp-56" value="3" style="swimlane;fontStyle=0;childLayout=stackLayout;horizontal=1;startSize=20;fillColor=#ffffff;horizontalStack=0;resizeParent=1;resizeParentMax=0;resizeLast=0;collapsible=0;marginBottom=0;swimlaneFillColor=#ffffff;" parent="1" vertex="1">
          <mxGeometry x="130" y="380" width="100" height="80" as="geometry" />
        </mxCell>
        <mxCell id="pLklD0VYTTt3TwNyVCAp-57" value="&lt;span style=&quot;font-size: 17px;&quot;&gt;checking for avaliable details&amp;nbsp;&lt;/span&gt;" style="text;html=1;align=center;verticalAlign=middle;whiteSpace=wrap;rounded=0;fillColor=#f5f5f5;strokeColor=#666666;fontColor=#333333;" parent="pLklD0VYTTt3TwNyVCAp-56" vertex="1">
          <mxGeometry y="20" width="100" height="60" as="geometry" />
        </mxCell>
        <mxCell id="pLklD0VYTTt3TwNyVCAp-59" value="&lt;font style=&quot;font-size: 15px;&quot;&gt;checking avaliable&lt;/font&gt;" style="text;html=1;align=center;verticalAlign=middle;whiteSpace=wrap;rounded=0;" parent="1" vertex="1">
          <mxGeometry x="95" y="120" width="110" height="30" as="geometry" />
        </mxCell>
        <mxCell id="pLklD0VYTTt3TwNyVCAp-60" value="4" style="swimlane;fontStyle=0;childLayout=stackLayout;horizontal=1;startSize=20;fillColor=#ffffff;horizontalStack=0;resizeParent=1;resizeParentMax=0;resizeLast=0;collapsible=0;marginBottom=0;swimlaneFillColor=#ffffff;" parent="1" vertex="1">
          <mxGeometry x="120" y="590" width="100" height="90" as="geometry" />
        </mxCell>
        <mxCell id="pLklD0VYTTt3TwNyVCAp-61" value="&lt;font style=&quot;font-size: 17px;&quot;&gt;cancelation order&amp;nbsp;&amp;nbsp;&lt;/font&gt;" style="text;html=1;align=center;verticalAlign=middle;whiteSpace=wrap;rounded=0;fillColor=#f5f5f5;fontColor=#333333;strokeColor=#666666;" parent="pLklD0VYTTt3TwNyVCAp-60" vertex="1">
          <mxGeometry y="20" width="100" height="70" as="geometry" />
        </mxCell>
        <mxCell id="pLklD0VYTTt3TwNyVCAp-64" value="&lt;font style=&quot;font-size: 15px;&quot;&gt;cancelation&lt;/font&gt;" style="text;html=1;align=center;verticalAlign=middle;whiteSpace=wrap;rounded=0;" parent="1" vertex="1">
          <mxGeometry x="220" y="100" width="60" height="30" as="geometry" />
        </mxCell>
        <mxCell id="pLklD0VYTTt3TwNyVCAp-65" style="edgeStyle=orthogonalEdgeStyle;rounded=0;orthogonalLoop=1;jettySize=auto;html=1;entryX=0.5;entryY=0;entryDx=0;entryDy=0;" parent="1" source="pLklD0VYTTt3TwNyVCAp-57" target="pLklD0VYTTt3TwNyVCAp-60" edge="1">
          <mxGeometry relative="1" as="geometry">
            <Array as="points">
              <mxPoint x="170" y="500" />
              <mxPoint x="170" y="500" />
            </Array>
          </mxGeometry>
        </mxCell>
        <mxCell id="pLklD0VYTTt3TwNyVCAp-66" value="&lt;span style=&quot;font-size: 15px;&quot;&gt;unavaliable&lt;/span&gt;" style="text;html=1;align=center;verticalAlign=middle;whiteSpace=wrap;rounded=0;" parent="1" vertex="1">
          <mxGeometry x="95" y="520" width="60" height="30" as="geometry" />
        </mxCell>
        <mxCell id="pLklD0VYTTt3TwNyVCAp-73" value="&lt;span style=&quot;font-size: 15px;&quot;&gt;avaliable&lt;/span&gt;" style="text;html=1;align=center;verticalAlign=middle;whiteSpace=wrap;rounded=0;" parent="1" vertex="1">
          <mxGeometry x="120" y="-20" width="60" height="30" as="geometry" />
        </mxCell>
        <mxCell id="pLklD0VYTTt3TwNyVCAp-74" style="edgeStyle=orthogonalEdgeStyle;rounded=0;orthogonalLoop=1;jettySize=auto;html=1;exitX=0.5;exitY=1;exitDx=0;exitDy=0;" parent="1" source="pLklD0VYTTt3TwNyVCAp-26" target="pLklD0VYTTt3TwNyVCAp-26" edge="1">
          <mxGeometry relative="1" as="geometry" />
        </mxCell>
        <mxCell id="EmQjv2lD-O9PLtsZvGQk-2" value="D2" style="html=1;dashed=0;whiteSpace=wrap;shape=mxgraph.dfd.dataStoreID;align=left;spacingLeft=3;points=[[0,0],[0.5,0],[1,0],[0,0.5],[1,0.5],[0,1],[0.5,1],[1,1]];" parent="1" vertex="1">
          <mxGeometry x="690" y="170" width="160" height="30" as="geometry" />
        </mxCell>
        <mxCell id="EmQjv2lD-O9PLtsZvGQk-9" style="edgeStyle=orthogonalEdgeStyle;rounded=0;orthogonalLoop=1;jettySize=auto;html=1;entryX=0;entryY=1;entryDx=0;entryDy=0;" parent="1" source="EmQjv2lD-O9PLtsZvGQk-3" target="pLklD0VYTTt3TwNyVCAp-11" edge="1">
          <mxGeometry relative="1" as="geometry">
            <Array as="points">
              <mxPoint x="770" y="220" />
              <mxPoint x="660" y="220" />
            </Array>
          </mxGeometry>
        </mxCell>
        <mxCell id="EmQjv2lD-O9PLtsZvGQk-3" value="&lt;span style=&quot;font-size: 14px;&quot;&gt;services data&amp;nbsp;&lt;/span&gt;" style="text;html=1;align=center;verticalAlign=middle;whiteSpace=wrap;rounded=0;" parent="1" vertex="1">
          <mxGeometry x="715" y="170" width="110" height="30" as="geometry" />
        </mxCell>
        <mxCell id="EmQjv2lD-O9PLtsZvGQk-8" style="edgeStyle=orthogonalEdgeStyle;rounded=0;orthogonalLoop=1;jettySize=auto;html=1;entryX=0.75;entryY=0;entryDx=0;entryDy=0;" parent="1" source="pLklD0VYTTt3TwNyVCAp-11" target="EmQjv2lD-O9PLtsZvGQk-3" edge="1">
          <mxGeometry relative="1" as="geometry" />
        </mxCell>
        <mxCell id="EmQjv2lD-O9PLtsZvGQk-11" value="&lt;span style=&quot;font-size: 14px;&quot;&gt;new data &amp;amp; info&lt;/span&gt;" style="text;html=1;align=center;verticalAlign=middle;whiteSpace=wrap;rounded=0;" parent="1" vertex="1">
          <mxGeometry x="760" y="110" width="100" height="30" as="geometry" />
        </mxCell>
        <mxCell id="EmQjv2lD-O9PLtsZvGQk-13" value="&amp;nbsp;" style="text;html=1;align=center;verticalAlign=middle;resizable=0;points=[];autosize=1;strokeColor=none;fillColor=none;" parent="1" vertex="1">
          <mxGeometry x="695" y="230" width="30" height="30" as="geometry" />
        </mxCell>
        <mxCell id="EmQjv2lD-O9PLtsZvGQk-16" value="Deliver people info" style="text;html=1;align=center;verticalAlign=middle;whiteSpace=wrap;rounded=0;" parent="1" vertex="1">
          <mxGeometry x="685" y="230" width="75" height="30" as="geometry" />
        </mxCell>
        <mxCell id="EmQjv2lD-O9PLtsZvGQk-17" value="Deliver services info" style="text;html=1;align=center;verticalAlign=middle;whiteSpace=wrap;rounded=0;" parent="1" vertex="1">
          <mxGeometry x="720" y="470" width="60" height="30" as="geometry" />
        </mxCell>
        <mxCell id="EmQjv2lD-O9PLtsZvGQk-25" style="edgeStyle=orthogonalEdgeStyle;rounded=0;orthogonalLoop=1;jettySize=auto;html=1;entryX=0.25;entryY=1;entryDx=0;entryDy=0;" parent="1" source="pLklD0VYTTt3TwNyVCAp-49" target="9U5tsQHyDkLq-hxC4wLl-1" edge="1">
          <mxGeometry relative="1" as="geometry">
            <Array as="points">
              <mxPoint x="270" y="880" />
              <mxPoint x="270" y="150" />
              <mxPoint x="340" y="150" />
            </Array>
          </mxGeometry>
        </mxCell>
        <mxCell id="EmQjv2lD-O9PLtsZvGQk-27" style="edgeStyle=orthogonalEdgeStyle;rounded=0;orthogonalLoop=1;jettySize=auto;html=1;entryX=0.4;entryY=0;entryDx=0;entryDy=0;entryPerimeter=0;" parent="1" source="pLklD0VYTTt3TwNyVCAp-57" target="pLklD0VYTTt3TwNyVCAp-10" edge="1">
          <mxGeometry relative="1" as="geometry">
            <Array as="points">
              <mxPoint x="40" y="430" />
              <mxPoint x="40" y="20" />
              <mxPoint x="700" y="20" />
            </Array>
          </mxGeometry>
        </mxCell>
        <mxCell id="lFRzjSEHLks9n0ZL0WhE-2" value="D4" style="html=1;dashed=0;whiteSpace=wrap;shape=mxgraph.dfd.dataStoreID;align=left;spacingLeft=3;points=[[0,0],[0.5,0],[1,0],[0,0.5],[1,0.5],[0,1],[0.5,1],[1,1]];" parent="1" vertex="1">
          <mxGeometry x="10" y="480" width="100" height="30" as="geometry" />
        </mxCell>
        <mxCell id="lFRzjSEHLks9n0ZL0WhE-3" value="Details of all services" style="text;html=1;align=center;verticalAlign=middle;whiteSpace=wrap;rounded=0;" parent="1" vertex="1">
          <mxGeometry x="40" y="480" width="110" height="30" as="geometry" />
        </mxCell>
        <mxCell id="lFRzjSEHLks9n0ZL0WhE-4" style="edgeStyle=orthogonalEdgeStyle;rounded=0;orthogonalLoop=1;jettySize=auto;html=1;entryX=0.379;entryY=0.171;entryDx=0;entryDy=0;entryPerimeter=0;" parent="1" source="pLklD0VYTTt3TwNyVCAp-57" target="lFRzjSEHLks9n0ZL0WhE-3" edge="1">
          <mxGeometry relative="1" as="geometry">
            <Array as="points">
              <mxPoint x="82" y="440" />
            </Array>
          </mxGeometry>
        </mxCell>
        <mxCell id="eq0-81VJL7edzaEcx1R9-9" value="staff login &amp;amp; register" style="text;html=1;align=center;verticalAlign=middle;whiteSpace=wrap;rounded=0;" parent="1" vertex="1">
          <mxGeometry x="630" y="760" width="60" height="30" as="geometry" />
        </mxCell>
        <mxCell id="eq0-81VJL7edzaEcx1R9-11" value="D5" style="html=1;dashed=0;whiteSpace=wrap;shape=mxgraph.dfd.dataStoreID;align=left;spacingLeft=3;points=[[0,0],[0.5,0],[1,0],[0,0.5],[1,0.5],[0,1],[0.5,1],[1,1]];" parent="1" vertex="1">
          <mxGeometry x="470" y="120" width="100" height="30" as="geometry" />
        </mxCell>
        <mxCell id="eq0-81VJL7edzaEcx1R9-12" value="staff datasore" style="text;html=1;align=center;verticalAlign=middle;whiteSpace=wrap;rounded=0;" parent="1" vertex="1">
          <mxGeometry x="510" y="120" width="60" height="30" as="geometry" />
        </mxCell>
        <mxCell id="eq0-81VJL7edzaEcx1R9-13" style="edgeStyle=orthogonalEdgeStyle;rounded=0;orthogonalLoop=1;jettySize=auto;html=1;exitX=1;exitY=0.25;exitDx=0;exitDy=0;entryX=0;entryY=0.5;entryDx=0;entryDy=0;" parent="1" source="9U5tsQHyDkLq-hxC4wLl-10" target="eq0-81VJL7edzaEcx1R9-11" edge="1">
          <mxGeometry relative="1" as="geometry" />
        </mxCell>
        <mxCell id="eq0-81VJL7edzaEcx1R9-15" value="client login &amp;amp; register&amp;nbsp;" style="text;html=1;align=center;verticalAlign=middle;whiteSpace=wrap;rounded=0;" parent="1" vertex="1">
          <mxGeometry x="300" y="230" width="60" height="30" as="geometry" />
        </mxCell>
        <mxCell id="eq0-81VJL7edzaEcx1R9-16" value="staff info&amp;nbsp;" style="text;html=1;align=center;verticalAlign=middle;whiteSpace=wrap;rounded=0;" parent="1" vertex="1">
          <mxGeometry x="440" y="220" width="60" height="30" as="geometry" />
        </mxCell>
      </root>
    </mxGraphModel>
  </diagram>
  <diagram id="ZDcN3GuNaYk4CAHkT1DX" name="Page-2">
    <mxGraphModel grid="0" page="0" gridSize="10" guides="1" tooltips="1" connect="1" arrows="1" fold="1" pageScale="1" pageWidth="827" pageHeight="1169" math="0" shadow="0">
      <root>
        <mxCell id="0" />
        <mxCell id="1" parent="0" />
      </root>
    </mxGraphModel>
  </diagram>
</mxfile>
